<svg id="vector" xmlns="http://www.w3.org/2000/svg" width="19" height="19" viewBox="0 0 38 38"><g id="one"><path fill="#FE424B" fill-rule="evenodd" d="M5.917,5.917C8.6995,3.0557 13.3652,2.0772 19,2C24.6347,2.0772 29.3004,3.0557 32.0831,5.917C34.9443,8.6995 35.9229,13.3652 36,19C35.9229,24.6347 34.9443,29.3004 32.0831,32.0831C29.3004,34.9443 24.6347,35.9229 19,36C13.3652,35.9229 8.6995,34.9443 5.917,32.0831C3.0557,29.3004 2.0772,24.6347 2,19C2.0772,13.3652 3.0557,8.6995 5.917,5.917Z" stroke-width="3" stroke="#FE424B"/></g><g id="two"><path fill="#FFFFFF" fill-rule="evenodd" d="M25.5,19.0243C25.5,21.8823 17.7812,26.0896 15.396,24.7402C13.0107,23.3909 12.7292,14.817 15.396,13.3084C18.0627,11.7998 25.5,16.1664 25.5,19.0243Z" stroke-width="1" stroke="#00000000"/></g></svg>