<svg
        xmlns="http://www.w3.org/2000/svg"
        viewBox="0 0 38 38"
        id="vector">
    <path
            id="path"
            d="M 19 19 M 2 19 C 2 14.493 3.792 10.166 6.979 6.979 C 10.166 3.792 14.493 2 19 2 C 23.507 2 27.834 3.792 31.021 6.979 C 34.208 10.166 36 14.493 36 19 C 36 23.507 34.208 27.834 31.021 31.021 C 27.834 34.208 23.507 36 19 36 C 14.493 36 10.166 34.208 6.979 31.021 C 3.792 27.834 2 23.507 2 19"
            fill="#00000000"
            stroke="#444444"
            stroke-width="3"
            fill-rule="evenodd"/>
    <path
            id="path_1"
            d="M 24.502 12.19 L 17.049 15.74 C 16.852 15.834 16.691 15.99 16.59 16.184 L 12.347 24.393 C 12.094 24.884 12.286 25.487 12.777 25.741 C 13.052 25.883 13.378 25.89 13.659 25.759 L 21.644 22.03 C 21.858 21.93 22.03 21.757 22.129 21.543 L 25.839 13.512 C 26.071 13.011 25.852 12.417 25.351 12.185 C 25.081 12.06 24.77 12.062 24.502 12.19 Z"
            fill="#4a4a4a"
            stroke="#00000000"
            stroke-width="1"
            fill-rule="evenodd"/>
</svg>
